Coordinates
version=1
nRows=13
nColumns=40
inDegrees=yes

Units are S.I. units (second, meters, Newtons, ...)
If the header above contains a line with 'inDegrees', this indicates whether rotational values are in degrees (yes) or radians (no).

endheader
time	pelvis_tilt	pelvis_list	pelvis_rotation	pelvis_tx	pelvis_ty	pelvis_tz	hip_flexion_r	hip_adduction_r	hip_rotation_r	knee_angle_r	knee_angle_r_beta	ankle_angle_r	subtalar_angle_r	mtp_angle_r	hip_flexion_l	hip_adduction_l	hip_rotation_l	knee_angle_l	knee_angle_l_beta	ankle_angle_l	subtalar_angle_l	mtp_angle_l	lumbar_extension	lumbar_bending	lumbar_rotation	arm_flex_r	arm_add_r	arm_rot_r	elbow_flex_r	pro_sup_r	wrist_flex_r	wrist_dev_r	arm_flex_l	arm_add_l	arm_rot_l	elbow_flex_l	pro_sup_l	wrist_flex_l	wrist_dev_l
      1.70000000	     -5.60151495	     -4.88923115	      0.46374517	     -0.23978266	      0.98608494	     -1.00424123	     15.77182206	     -9.75586717	      1.68877609	     87.49002682	      1.52698903	    -21.56910443	      0.00000000	      0.00000000	     11.23168449	     -1.61711771	     -2.92667181	     15.00410768	      0.26187108	     -3.49426967	      0.00000000	      0.00000000	     -6.38962595	     -2.10578369	      6.72769223	     53.66628430	     -9.85848314	     24.75213345	     86.04024896	     80.70105383	      0.00000000	      0.00000000	     56.47530870	    -13.84861483	     30.74418348	     82.47130082	     74.23812872	      0.00000000	      0.00000000
      1.70500000	     -5.70232993	     -4.97139160	      0.54720611	     -0.24027972	      0.98580240	     -1.00417508	     15.87626791	     -9.65188800	      1.66109409	     87.50617058	      1.52727079	    -21.57575794	      0.00000000	      0.00000000	     11.54711310	     -1.71634525	     -2.83454058	     15.30796435	      0.26717438	     -3.40333748	      0.00000000	      0.00000000	     -6.39120916	     -2.01496092	      6.60071098	     53.83527649	     -9.80267591	     24.85466300	     85.94623311	     80.88196103	      0.00000000	      0.00000000	     56.56331319	    -13.91630307	     30.72038751	     82.49739452	     74.09379046	      0.00000000	      0.00000000
      1.71000000	     -5.79181130	     -5.01469447	      0.60380711	     -0.24075430	      0.98555657	     -1.00408595	     15.99150858	     -9.59606248	      1.63276625	     87.54125205	      1.52788308	    -21.58123312	      0.00000000	      0.00000000	     11.89538340	     -1.79602330	     -2.82773467	     15.74555707	      0.27481181	     -3.48546376	      0.00000000	      0.00000000	     -6.41902304	     -2.02971797	      6.65678947	     53.90330664	     -9.91118509	     24.76461539	     86.03828920	     80.87902180	      0.00000000	      0.00000000	     56.76903211	    -13.78196431	     30.82599261	     82.36946411	     73.95932176	      0.00000000	      0.00000000
      1.71500000	     -5.95931012	     -4.98828798	      0.65332931	     -0.24124431	      0.98519610	     -1.00406116	     16.15937978	     -9.63156540	      1.65836640	     87.52767358	      1.52764609	    -21.48014502	      0.00000000	      0.00000000	     12.11303131	     -1.74632087	     -2.55068793	     15.71112365	      0.27421084	     -3.55149436	      0.00000000	      0.00000000	     -6.35110554	     -2.08390870	      6.62830244	     53.98489888	     -9.92898958	     24.78631639	     86.03633852	     80.62277231	      0.00000000	      0.00000000	     56.88654093	    -13.77939528	     30.92193181	     82.36347332	     73.66938281	      0.00000000	      0.00000000
      1.72000000	     -6.02331395	     -5.02564208	      0.69817842	     -0.24179091	      0.98498698	     -1.00393600	     16.23564428	     -9.52821152	      1.56429476	     87.47871561	      1.52679161	    -22.20139373	      0.00000000	      0.00000000	     12.40094426	     -1.80353586	     -2.48590451	     16.05928156	      0.28028734	     -3.45437957	      0.00000000	      0.00000000	     -6.41940974	     -2.06615083	      6.55180340	     54.17337332	     -9.89336542	     24.79551543	     85.94644278	     80.39891053	      0.00000000	      0.00000000	     56.98550555	    -13.85782123	     30.90523579	     82.42963647	     73.24702579	      0.00000000	      0.00000000
      1.72500000	     -5.96728477	     -4.88611738	      0.54642582	     -0.24204091	      0.98484724	     -1.00367446	     16.22224882	     -9.63018986	      1.79069712	     87.54196182	      1.52789547	    -22.03048040	      0.00000000	      0.00000000	     12.43844272	     -1.71812372	     -2.84355450	     16.26689998	      0.28391096	     -3.40678257	      0.00000000	      0.00000000	     -6.57549907	     -2.26562936	      6.77542891	     54.28349012	     -9.92731926	     24.77667904	     85.95024604	     80.38758142	      0.00000000	      0.00000000	     57.20537490	    -13.78418814	     31.00961767	     82.24975446	     73.64696005	      0.00000000	      0.00000000
      1.73000000	     -6.10862955	     -4.85795466	      0.56926630	     -0.24261417	      0.98445263	     -1.00364653	     16.44364453	     -9.67137647	      1.88915614	     87.63216502	      1.52946981	    -21.66981369	      0.00000000	      0.00000000	     12.82257821	     -1.70747593	     -2.81426977	     16.63937235	      0.29041183	     -3.35377399	      0.00000000	      0.00000000	     -6.55366107	     -2.31874260	      6.73475001	     54.39696001	     -9.94821150	     24.79443451	     85.95202935	     80.56867456	      0.00000000	      0.00000000	     57.32884480	    -13.80280600	     30.92729556	     82.23589860	     74.46311555	      0.00000000	      0.00000000
      1.73500000	     -6.24955612	     -4.94881328	      0.78085981	     -0.24340233	      0.98405443	     -1.00380118	     16.57397454	     -9.61114385	      1.71436892	     87.64946182	      1.52977170	    -21.58900381	      0.00000000	      0.00000000	     13.25381299	     -1.78162492	     -2.51496793	     17.02105803	      0.29707350	     -3.30487563	      0.00000000	      0.00000000	     -6.55239024	     -2.22777588	      6.53019903	     54.63109090	     -9.90196654	     24.85967701	     85.79716185	     80.45542139	      0.00000000	      0.00000000	     57.49632241	    -13.79135865	     30.95118085	     82.20896664	     74.04738384	      0.00000000	      0.00000000
      1.74000000	     -6.35870342	     -4.96234224	      0.78048487	     -0.24396279	      0.98372713	     -1.00363441	     16.72749916	     -9.55581960	      1.79473833	     87.71196223	      1.53086253	    -21.46189462	      0.00000000	      0.00000000	     13.59151792	     -1.83405426	     -2.58918594	     17.37471016	      0.30324590	     -3.25056716	      0.00000000	      0.00000000	     -6.57451564	     -2.24133497	      6.51644640	     54.80053398	     -9.88246920	     24.87838579	     85.73232091	     80.71029205	      0.00000000	      0.00000000	     57.63176569	    -13.80895982	     30.96681003	     82.21282448	     73.45004793	      0.00000000	      0.00000000
      1.74500000	     -6.47661754	     -4.89861216	      0.77654178	     -0.24460794	      0.98338783	     -1.00349224	     16.87525037	     -9.60283225	      1.91831850	     87.72297743	      1.53105479	    -21.40250794	      0.00000000	      0.00000000	     13.86665819	     -1.78736570	     -2.63067184	     17.56104821	      0.30649811	     -3.30089615	      0.00000000	      0.00000000	     -6.58157229	     -2.35808607	      6.53032598	     54.90912528	     -9.89079114	     24.89090935	     85.71538784	     80.46268701	      0.00000000	      0.00000000	     57.80102098	    -13.79330761	     30.99924089	     82.12901420	     73.25708095	      0.00000000	      0.00000000
      1.75000000	     -6.63538221	     -4.94087878	      0.84005292	     -0.24511822	      0.98297579	     -1.00346543	     17.03701370	     -9.51801492	      1.95273654	     87.71551820	      1.53092460	    -21.45780484	      0.00000000	      0.00000000	     14.24027212	     -1.84032367	     -2.60500320	     17.88992178	      0.31223804	     -3.20384153	      0.00000000	      0.00000000	     -6.53262811	     -2.33483828	      6.51972508	     55.02173614	     -9.88519413	     24.81530492	     85.65212886	     80.93633291	      0.00000000	      0.00000000	     57.90774163	    -13.71927499	     30.98337112	     82.02275151	     73.50629352	      0.00000000	      0.00000000
      1.75500000	     -6.68738910	     -4.91701353	      0.88607240	     -0.24583419	      0.98263621	     -1.00343330	     17.12176757	     -9.55065083	      1.94381929	     87.75697411	      1.53164814	    -21.47956974	      0.00000000	      0.00000000	     14.46768830	     -1.81987566	     -2.59042311	     18.11060726	      0.31608973	     -3.17836495	      0.00000000	      0.00000000	     -6.63652875	     -2.38330084	      6.46897587	     55.22551362	     -9.86810983	     24.83243714	     85.65710144	     80.87758748	      0.00000000	      0.00000000	     58.09187292	    -13.72756045	     31.00489482	     81.95318995	     73.67481993	      0.00000000	      0.00000000
      1.76000000	     -6.88849443	     -5.01373635	      0.98558445	     -0.24667912	      0.98205514	     -1.00330957	     17.36638910	     -9.42972541	      1.88440678	     87.81395872	      1.53264271	    -21.49209955	      0.00000000	      0.00000000	     14.96108150	     -1.93302478	     -2.49910302	     18.51027186	      0.32306519	     -3.04487436	      0.00000000	      0.00000000	     -6.58227902	     -2.31071140	      6.40462057	     55.37630952	     -9.87975815	     24.82371824	     85.60827447	     80.67664478	      0.00000000	      0.00000000	     58.28203450	    -13.72460158	     31.05710149	     81.90894922	     73.68091912	      0.00000000	      0.00000000
